<svg width="64" height="64" viewBox="0 0 64 64" fill="none" xmlns="http://www.w3.org/2000/svg">
<circle cx="32" cy="32" r="32" fill="#F4F4F4"/>
<path d="M21.94 16.7987C17.353 17.8869 14.2737 22.4589 14.513 27.8559C14.537 28.4614 14.6247 29.295 14.7125 29.7075C15.7814 34.9201 20.4403 40.6856 28.4018 46.653C30.2765 48.057 30.7631 48.2589 32.1432 48.1974C33.4914 48.1272 33.9461 47.8815 36.6744 45.7579C43.91 40.1152 48.1779 34.6481 49.1911 29.7075C49.6538 27.4697 49.3666 24.6353 48.4571 22.5116C47.1887 19.5279 44.8035 17.4481 41.9156 16.7987C40.9424 16.5794 39.2831 16.5618 38.3337 16.7636C37.0813 17.0181 35.8607 17.5798 34.6801 18.4398C34.0259 18.9136 32.7096 20.2563 32.1991 20.9671L31.9518 21.3181L31.6965 20.9671C30.2047 18.9487 28.2343 17.5008 26.1282 16.8865C25.147 16.5969 22.9691 16.553 21.94 16.7987ZM25.6496 19.1242C26.4633 19.3524 27.8434 20.1422 28.5773 20.7828C29.3192 21.4322 30.093 22.3975 30.7232 23.4418C31.2657 24.3457 31.4651 24.5212 31.9518 24.5212C32.4543 24.5212 32.6139 24.372 33.276 23.2751C33.8903 22.2571 35.0071 20.9671 35.757 20.4142C37.1611 19.37 38.4694 18.9049 40.0329 18.9049C41.421 18.9049 42.6017 19.2647 43.8143 20.0632C44.3966 20.4493 45.4337 21.52 45.8724 22.1957C47.0212 23.9595 47.5716 26.5922 47.2366 28.6983C46.7978 31.4626 45.2342 34.2795 42.2826 37.5879C40.2563 39.8607 37.8631 42.037 34.8795 44.3274C33.1404 45.6613 32.6458 45.9334 31.9597 45.9334C31.2817 45.9334 30.9067 45.7403 29.4468 44.6521C24.5247 40.9577 20.7275 37.1052 18.6214 33.6565C17.1376 31.2432 16.4675 28.9703 16.5792 26.8467C16.8026 22.9504 19.108 19.8351 22.3788 19.0365C23.0728 18.8698 24.9316 18.9136 25.6496 19.1242Z" fill="#3C3B3B"/>
</svg>
