<svg width="64" height="64" viewBox="0 0 64 64" fill="none" xmlns="http://www.w3.org/2000/svg">
<circle cx="32" cy="32" r="32" fill="#00405A"/>
<path d="M21.94 16.1762C17.353 17.2643 14.2737 21.8364 14.513 27.2333C14.537 27.8388 14.6247 28.6725 14.7125 29.0849C15.7814 34.2976 20.4403 40.0631 28.4018 46.0304C30.2765 47.4345 30.7631 47.6363 32.1432 47.5749C33.4914 47.5047 33.9461 47.259 36.6744 45.1353C43.91 39.4927 48.1779 34.0255 49.1911 29.0849C49.6538 26.8472 49.3666 24.0127 48.4571 21.889C47.1887 18.9054 44.8035 16.8256 41.9156 16.1762C40.9424 15.9568 39.2831 15.9392 38.3337 16.1411C37.0813 16.3956 35.8607 16.9572 34.6801 17.8172C34.0259 18.2911 32.7096 19.6337 32.1991 20.3445L31.9518 20.6956L31.6965 20.3445C30.2047 18.3262 28.2343 16.8782 26.1282 16.2639C25.147 15.9743 22.9691 15.9305 21.94 16.1762ZM25.6496 18.5017C26.4633 18.7299 27.8434 19.5196 28.5773 20.1603C29.3192 20.8096 30.093 21.7749 30.7232 22.8192C31.2657 23.7231 31.4651 23.8986 31.9518 23.8986C32.4543 23.8986 32.6139 23.7494 33.276 22.6525C33.8903 21.6345 35.0071 20.3445 35.757 19.7917C37.1611 18.7474 38.4694 18.2823 40.0329 18.2823C41.421 18.2823 42.6017 18.6421 43.8143 19.4407C44.3966 19.8268 45.4337 20.8974 45.8724 21.5731C47.0212 23.337 47.5716 25.9696 47.2366 28.0757C46.7978 30.84 45.2342 33.657 42.2826 36.9653C40.2563 39.2382 37.8631 41.4145 34.8795 43.7049C33.1404 45.0388 32.6458 45.3108 31.9597 45.3108C31.2817 45.3108 30.9067 45.1177 29.4468 44.0296C24.5247 40.3351 20.7275 36.4827 18.6214 33.0339C17.1376 30.6206 16.4675 28.3478 16.5792 26.2241C16.8026 22.3278 19.108 19.2125 22.3788 18.4139C23.0728 18.2472 24.9316 18.2911 25.6496 18.5017Z" fill="white"/>
</svg>
